# xmcd
#
# Track frame offsets: 
#        150
#        21332
#        41277
#        56940
#        86229
#        105555
#        126129
#        151902
#        166977
#        189342
#        206092
#
# Disc length: 3159 seconds
#
# Revision: 6
# Processed by: cddbd v1.5.2PL0 Copyright (c) Steve Scherf et al.
# Submitted via: ExactAudioCopyFreeDBPlugin 1.0
#
DISCID=900c550b
DTITLE=Bernard Allison - Born With The Blues
DYEAR=1997
DGENRE=Blues
TTITLE0=Baby Chile
TTITLE1=Tell Me Why
TTITLE2=Walkin'
TTITLE3=Young Boy's Blues
TTITLE4=In The Open
TTITLE5=You Gave Me The Blues
TTITLE6=Home Goin'
TTITLE7=When I'm Lonely
TTITLE8=A Change Must Come
TTITLE9=Rocket 88
TTITLE10=Garbage Man
EXTD=YEAR: 1997
EXTT0=
EXTT1=
EXTT2=
EXTT3=
EXTT4=
EXTT5=
EXTT6=
EXTT7=
EXTT8=
EXTT9=
EXTT10=
PLAYORDER=
